<?xml version="1.0" encoding="utf-8"?>
<!-- Generator: Adobe Illustrator 27.2.0, SVG Export Plug-In . SVG Version: 6.00 Build 0)  -->
<svg version="1.1" id="Layer_1" xmlns="http://www.w3.org/2000/svg" xmlns:xlink="http://www.w3.org/1999/xlink" x="0px" y="0px"
	 viewBox="0 0 48 48" style="enable-background:new 0 0 48 48;" xml:space="preserve">
<style type="text/css">
	.st0{fill:#FFFFFF;}
</style>
<path class="st0" d="M24,41.9l-2-1.8c-3.5-3.2-6.4-6-8.8-8.4s-4.1-4.4-5.5-6.3s-2.3-3.5-2.9-5c-0.5-1.5-0.8-3-0.8-4.5
	c0-3,1-5.5,3-7.5s4.5-3,7.5-3c1.9,0,3.7,0.4,5.3,1.3c1.6,0.9,3,2.2,4.2,3.9c1.4-1.8,2.9-3.1,4.5-4s3.3-1.3,5-1.3c3,0,5.5,1,7.5,3
	c2,2,3,4.5,3,7.5c0,1.5-0.3,3-0.8,4.6c-0.5,1.5-1.5,3.2-2.9,5c-1.4,1.9-3.2,4-5.5,6.3c-2.3,2.4-5.2,5.1-8.8,8.4L24,41.9z"/>
</svg>
