<?xml version="1.0" encoding="utf-8"?>
<!-- Generator: Adobe Illustrator 27.2.0, SVG Export Plug-In . SVG Version: 6.00 Build 0)  -->
<svg version="1.1" id="Layer_1" xmlns="http://www.w3.org/2000/svg" xmlns:xlink="http://www.w3.org/1999/xlink" x="0px" y="0px"
	 viewBox="0 0 40 36.6" style="fill:rgb(255, 98, 0);" xml:space="preserve">
<path d="M20,36.6l-2-1.8c-3.5-3.2-6.4-6-8.8-8.4C6.8,24,5.1,22,3.7,20.1s-2.3-3.5-2.9-5c-0.5-1.5-0.8-3-0.8-4.5c0-3,1-5.5,3-7.5
	s4.5-3,7.5-3c1.9,0,3.7,0.4,5.3,1.3c1.6,0.9,3,2.2,4.2,3.9c1.4-1.8,2.9-3.1,4.5-4s3.3-1.3,5-1.3c3,0,5.5,1,7.5,3s3,4.5,3,7.5
	c0,1.5-0.3,3-0.8,4.6c-0.5,1.5-1.5,3.2-2.9,5c-1.4,1.9-3.2,4-5.5,6.3c-2.3,2.4-5.2,5.1-8.8,8.4L20,36.6z"/>
</svg>
